Bevan 2.ufo
<glyph name="four" format="1">
  <advance width="1064"/>
  <unicode hex="0034"/>
  <outline>
    <contour>
      <point x="807" y="237" type="line"/>
      <point x="807" y="471" type="line"/>
      <point x="1035" y="471" type="line"/>
      <point x="1035" y="625.549" type="line"/>
      <point x="808" y="623.549" type="line"/>
      <point x="808" y="1290.12" type="line"/>
      <point x="500.208" y="1290.95" type="line"/>
      <point x="22" y="669.38" type="line"/>
      <point x="22" y="470.096" type="line"/>
      <point x="508.008" y="471.096" type="line"/>
      <point x="508.008" y="237" type="line"/>
      <point x="401.785" y="237" type="line"/>
      <point x="401.785" y="51" type="line"/>
      <point x="929" y="51" type="line"/>
      <point x="929" y="237" type="line"/>
    </contour>
    <contour>
      <point x="508.008" y="625.729" type="line"/>
      <point x="208.419" y="627.563" type="line"/>
      <point x="508.008" y="1054.83" type="line"/>
    </contour>
  </outline>
</glyph>
<glyph name="B" format="1">
  <advance width="1436"/>
  <unicode hex="0042"/>
  <outline>
    <contour>
      <point x="61" y="1593" type="line"/>
      <point x="766.717" y="1593" type="line" smooth="yes"/>
      <point x="1084.01" y="1593"/>
      <point x="1308" y="1533.67"/>
      <point x="1308" y="1225" type="curve" smooth="yes"/>
      <point x="1308" y="1072.63"/>
      <point x="1212.58" y="984.284"/>
      <point x="1100.5" y="938.985" type="curve" smooth="yes"/>
      <point x="970.02" y="886.251" type="line"/>
      <point x="1103" y="842.095" type="line"/>
      <point x="1268.33" y="792.17"/>
      <point x="1377" y="686.845"/>
      <point x="1377" y="471" type="curve" smooth="yes"/>
      <point x="1377" y="191.15"/>
      <point x="1160.49" y="102"/>
      <point x="874.496" y="102" type="curve" smooth="yes"/>
      <point x="54" y="102" type="line"/>
      <point x="54" y="359" type="line"/>
      <point x="227" y="359" type="line"/>
      <point x="227" y="1342" type="line"/>
      <point x="61" y="1342" type="line"/>
    </contour>
    <contour>
      <point x="613.511" y="359" type="line"/>
      <point x="678.535" y="359" type="line" smooth="yes"/>
      <point x="807.268" y="359"/>
      <point x="946.645" y="382.429"/>
      <point x="946.645" y="552.205" type="curve" smooth="yes"/>
      <point x="946.645" y="688.855"/>
      <point x="843.466" y="741"/>
      <point x="724.853" y="741" type="curve" smooth="yes"/>
      <point x="703.92" y="741" type="line" smooth="yes"/>
      <point x="692.137" y="741"/>
      <point x="676.808" y="740.693"/>
      <point x="657.52" y="740.096" type="curve" smooth="yes"/>
      <point x="613.511" y="738.733" type="line"/>
    </contour>
    <contour>
      <point x="613.511" y="900" type="line"/>
      <point x="695.459" y="900" type="line" smooth="yes"/>
      <point x="809.088" y="900"/>
      <point x="939.519" y="928.465"/>
      <point x="939.519" y="1101" type="curve" smooth="yes"/>
      <point x="939.519" y="1209.68"/>
      <point x="867.511" y="1291"/>
      <point x="771.171" y="1291" type="curve" smooth="yes"/>
      <point x="613.511" y="1291" type="line"/>
    </contour>
  </outline>
</glyph>
<glyph name="F" format="1">
  <advance width="1152"/>
  <unicode hex="0046"/>
  <outline>
    <contour>
      <point x="790.602" y="734" type="line"/>
      <point x="790.602" y="888" type="line"/>
      <point x="618.836" y="888" type="line"/>
      <point x="618.836" y="1291" type="line"/>
      <point x="870.534" y="1291" type="line"/>
      <point x="933.002" y="1000" type="line"/>
      <point x="1125" y="1000" type="line"/>
      <point x="1125" y="1542" type="line"/>
      <point x="54" y="1542" type="line"/>
      <point x="54" y="1291" type="line"/>
      <point x="212" y="1291" type="line"/>
      <point x="212" y="359" type="line"/>
      <point x="54" y="359" type="line"/>
      <point x="54" y="102" type="line"/>
      <point x="749.786" y="102" type="line"/>
      <point x="749.786" y="359" type="line"/>
      <point x="618.836" y="359" type="line"/>
      <point x="618.836" y="734" type="line"/>
    </contour>
  </outline>
</glyph>
<glyph name="K" format="1">
  <advance width="1543"/>
  <unicode hex="004B"/>
  <outline>
    <contour>
      <point x="958.163" y="358" type="curve" smooth="yes"/>
      <point x="958.163" y="533" type="line" smooth="yes"/>
      <point x="958.163" y="611.632"/>
      <point x="912.394" y="732"/>
      <point x="812.602" y="732" type="curve" smooth="yes"/>
      <point x="612.796" y="732" type="line"/>
      <point x="612.796" y="359" type="line"/>
      <point x="728.507" y="359" type="line"/>
      <point x="733.038" y="102" type="line"/>
      <point x="54" y="102" type="line"/>
      <point x="54" y="359" type="line"/>
      <point x="201" y="359" type="line"/>
      <point x="201" y="1342" type="line"/>
      <point x="54" y="1342" type="line"/>
      <point x="54" y="1592" type="line"/>
      <point x="727.617" y="1592" type="line"/>
      <point x="727.617" y="1342" type="line"/>
      <point x="612.796" y="1342" type="line"/>
      <point x="612.796" y="781.264" type="line"/>
      <point x="964.491" y="1273.27" type="line"/>
      <point x="964.491" y="1592" type="line"/>
      <point x="1455" y="1592" type="line"/>
      <point x="1455" y="1342" type="line"/>
      <point x="1344.99" y="1342" type="line"/>
      <point x="1024.16" y="923.347" type="line"/>
      <point x="1024.16" y="840" type="line"/>
      <point x="1070.27" y="840" type="line" smooth="yes"/>
      <point x="1244.27" y="840"/>
      <point x="1345" y="796.748"/>
      <point x="1345" y="643" type="curve" smooth="yes"/>
      <point x="1345" y="502" type="line" smooth="yes"/>
      <point x="1345" y="449.196"/>
      <point x="1374.41" y="359"/>
      <point x="1463" y="359" type="curve" smooth="yes"/>
      <point x="1502.85" y="359" type="line"/>
      <point x="1507.14" y="102" type="line"/>
      <point x="1215.83" y="102" type="line" smooth="yes"/>
      <point x="1031.77" y="102"/>
      <point x="958.163" y="180.9"/>
    </contour>
  </outline>
</glyph>
<glyph name="R" format="1">
  <advance width="1525"/>
  <unicode hex="0052"/>
  <outline>
    <contour>
      <point x="54" y="1541" type="line"/>
      <point x="947.044" y="1541" type="line" smooth="yes"/>
      <point x="1224.94" y="1541"/>
      <point x="1394" y="1443.83"/>
      <point x="1394" y="1160" type="curve" smooth="yes"/>
      <point x="1394" y="964.56"/>
      <point x="1260.92" y="882.159"/>
      <point x="1091.82" y="847.134" type="curve" smooth="yes"/>
      <point x="873.847" y="801.986" type="line"/>
      <point x="1090.03" y="747.276" type="line"/>
      <point x="1216.17" y="718.896"/>
      <point x="1312" y="683.396"/>
      <point x="1312" y="570.114" type="curve" smooth="yes"/>
      <point x="1312" y="496.982" type="line" smooth="yes"/>
      <point x="1312" y="396.419"/>
      <point x="1397.5" y="363.672"/>
      <point x="1476" y="359" type="curve"/>
      <point x="1476" y="100.601" type="line"/>
      <point x="1205.69" y="100.601" type="line" smooth="yes"/>
      <point x="1033.69" y="100.601"/>
      <point x="956.056" y="143.446"/>
      <point x="956.056" y="305.601" type="curve" smooth="yes"/>
      <point x="956.056" y="474.954" type="line" smooth="yes"/>
      <point x="956.056" y="613.198"/>
      <point x="912.518" y="734"/>
      <point x="742.47" y="734" type="curve" smooth="yes"/>
      <point x="608.19" y="734" type="line"/>
      <point x="608.19" y="357.601" type="line"/>
      <point x="717.236" y="357.601" type="line"/>
      <point x="717.236" y="100.601" type="line"/>
      <point x="462.194" y="100.601" type="line" smooth="yes"/>
      <point x="353.077" y="100.601"/>
      <point x="215.083" y="100.321"/>
      <point x="55" y="99.7803" type="curve"/>
      <point x="55" y="357.601" type="line"/>
      <point x="209" y="357.601" type="line"/>
      <point x="209" y="1290" type="line"/>
      <point x="54" y="1290" type="line"/>
    </contour>
    <contour>
      <point x="602.782" y="858" type="line"/>
      <point x="703.718" y="858" type="line" smooth="yes"/>
      <point x="830.179" y="858"/>
      <point x="974.982" y="904.289"/>
      <point x="974.982" y="1085" type="curve" smooth="yes"/>
      <point x="974.982" y="1226.08"/>
      <point x="866.212" y="1290"/>
      <point x="757.79" y="1290" type="curve" smooth="yes"/>
      <point x="602.782" y="1290" type="line"/>
    </contour>
  </outline>
</glyph>
<glyph name="e" format="1">
  <advance width="1035.58688025"/>
  <unicode hex="0065"/>
  <outline>
    <contour>
      <point x="545" y="-18" type="curve" smooth="yes"/>
      <point x="745" y="-18"/>
      <point x="871" y="80"/>
      <point x="910" y="121" type="curve"/>
      <point x="910" y="121"/>
      <point x="928" y="308"/>
      <point x="928" y="308" type="curve"/>
      <point x="864" y="308" type="line"/>
      <point x="820" y="134"/>
      <point x="727" y="78"/>
      <point x="546" y="78" type="curve" smooth="yes"/>
      <point x="301" y="78"/>
      <point x="191.586880248" y="274"/>
      <point x="191.586880248" y="496" type="curve"/>
      <point x="939.586880248" y="496" type="line"/>
      <point x="941.586880248" y="518"/>
      <point x="943.586880248" y="561"/>
      <point x="943.586880248" y="562" type="curve" smooth="yes"/>
      <point x="943.586880248" y="841"/>
      <point x="743.586880248" y="989"/>
      <point x="519.586880248" y="989" type="curve" smooth="yes"/>
      <point x="223.586880248" y="989"/>
      <point x="63.5868802478" y="766"/>
      <point x="63.5868802478" y="485" type="curve" smooth="yes"/>
      <point x="63.5868802478" y="236"/>
      <point x="247" y="-18"/>
    </contour>
    <contour>
      <point x="194.586880248" y="584" type="line"/>
      <point x="194.586880248" y="586"/>
      <point x="196.586880248" y="616"/>
      <point x="196.586880248" y="618" type="curve" smooth="yes"/>
      <point x="219.586880248" y="761"/>
      <point x="338.586880248" y="893"/>
      <point x="519.586880248" y="893" type="curve" smooth="yes"/>
      <point x="695.586880248" y="893"/>
      <point x="830.586880248" y="756"/>
      <point x="830.586880248" y="605" type="curve"/>
      <point x="830.586880248" y="600"/>
      <point x="830.586880248" y="588"/>
      <point x="830.586880248" y="584" type="curve"/>
    </contour>
  </outline>
</glyph>
<glyph name="g" format="1">
  <advance width="1220"/>
  <unicode hex="0067"/>
  <outline>
    <contour>
      <point x="1083" y="761" type="line"/>
      <point x="1083" y="84" type="line" smooth="yes"/>
      <point x="1083" y="-253.333"/>
      <point x="846.917" y="-390"/>
      <point x="529.642" y="-390" type="curve" smooth="yes"/>
      <point x="421.82" y="-390"/>
      <point x="305.542" y="-372.927"/>
      <point x="169" y="-339.181" type="curve"/>
      <point x="169" y="-159.157" type="line"/>
      <point x="268.974" y="-190.353"/>
      <point x="366.608" y="-224"/>
      <point x="478.494" y="-224" type="curve" smooth="yes"/>
      <point x="635.636" y="-224"/>
      <point x="732.502" y="-120.126"/>
      <point x="732.502" y="66" type="curve" smooth="yes"/>
      <point x="732.502" y="181.625" type="line"/>
      <point x="658.478" y="103.663" type="line" smooth="yes"/>
      <point x="603.245" y="45.4912"/>
      <point x="524.556" y="0"/>
      <point x="416.075" y="0" type="curve" smooth="yes"/>
      <point x="170.751" y="0"/>
      <point x="34" y="203.234"/>
      <point x="34" y="490" type="curve" smooth="yes"/>
      <point x="34" y="780.078"/>
      <point x="169.216" y="989"/>
      <point x="414.341" y="989" type="curve" smooth="yes"/>
      <point x="531.115" y="989"/>
      <point x="602.574" y="923.313"/>
      <point x="652.068" y="841.754" type="curve" smooth="yes"/>
      <point x="695.701" y="769.854" type="line"/>
      <point x="777.829" y="970" type="line"/>
      <point x="1190" y="970" type="line"/>
      <point x="1190" y="761" type="line"/>
    </contour>
    <contour>
      <point x="730.769" y="691.13" type="line"/>
      <point x="713.265" y="773.928"/>
      <point x="653.394" y="830"/>
      <point x="572.121" y="830" type="curve" smooth="yes"/>
      <point x="443.487" y="830"/>
      <point x="386.6" y="705.851"/>
      <point x="386.6" y="535" type="curve" smooth="yes"/>
      <point x="386.6" y="403.161"/>
      <point x="432.078" y="261"/>
      <point x="575.589" y="261" type="curve" smooth="yes"/>
      <point x="624.302" y="261"/>
      <point x="730.769" y="282.327"/>
      <point x="730.769" y="390" type="curve" smooth="yes"/>
    </contour>
  </outline>
</glyph>
<glyph name="m" format="1">
  <advance width="1664.0"/>
  <unicode hex="006D"/>
  <outline>
    <contour>
      <point x="433.0" y="95" type="line"/>
      <point x="256.0" y="95" type="line"/>
      <point x="256.0" y="645" type="line" smooth="yes"/>
      <point x="256.0" y="730"/>
      <point x="394" y="893"/>
      <point x="566" y="893" type="curve" smooth="yes"/>
      <point x="714" y="893"/>
      <point x="768.0" y="811"/>
      <point x="768.0" y="648" type="curve" smooth="yes"/>
      <point x="768.0" y="0" type="line"/>
      <point x="1088.0" y="0" type="line"/>
      <point x="1088.0" y="95" type="line"/>
      <point x="896.0" y="95" type="line"/>
      <point x="896.0" y="645" type="line"/>
      <point x="896.0" y="730"/>
      <point x="1035" y="893"/>
      <point x="1207" y="893" type="curve" smooth="yes"/>
      <point x="1355" y="893"/>
      <point x="1408.0" y="811"/>
      <point x="1408.0" y="648" type="curve" smooth="yes"/>
      <point x="1408.0" y="0" type="line"/>
      <point x="1728.0" y="0" type="line"/>
      <point x="1728.0" y="95" type="line"/>
      <point x="1536.0" y="95" type="line"/>
      <point x="1536.0" y="659" type="line" smooth="yes"/>
      <point x="1536.0" y="901"/>
      <point x="1423.0" y="989"/>
      <point x="1239.0" y="989" type="curve" smooth="yes"/>
      <point x="1106.0" y="989"/>
      <point x="955.0" y="900"/>
      <point x="894.0" y="768" type="curve"/>
      <point x="858.0" y="928"/>
      <point x="751.0" y="989"/>
      <point x="598.0" y="989" type="curve" smooth="yes"/>
      <point x="462.0" y="989"/>
      <point x="314.0" y="908"/>
      <point x="256.0" y="772" type="curve"/>
      <point x="256.0" y="984" type="line"/>
      <point x="-32.0" y="935" type="line"/>
      <point x="-32.0" y="851" type="line"/>
      <point x="128.0" y="851" type="line"/>
      <point x="128.0" y="95" type="line"/>
      <point x="-32.0" y="95" type="line"/>
      <point x="-32.0" y="0" type="line"/>
      <point x="433.0" y="0" type="line"/>
    </contour>
  </outline>
</glyph>
<glyph name="p" format="1">
  <advance width="1135.69511807"/>
  <unicode hex="0070"/>
  <outline>
    <contour>
      <point x="615.0" y="987.0" type="curve" smooth="yes"/>
      <point x="891.0" y="987.0"/>
      <point x="1056.0" y="798.0"/>
      <point x="1056.0" y="488.0" type="curve" smooth="yes"/>
      <point x="1056.0" y="104.0"/>
      <point x="806.0" y="-20.0"/>
      <point x="597.0" y="-20.0" type="curve" smooth="yes"/>
      <point x="388.0" y="-20.0"/>
      <point x="282" y="119"/>
      <point x="256.0" y="197.0" type="curve"/>
      <point x="256.0" y="-275.0" type="line"/>
      <point x="384.0" y="-275.0" type="line"/>
      <point x="384.0" y="-368.0" type="line"/>
      <point x="-32.0" y="-368.0" type="line"/>
      <point x="-32.0" y="-273.0" type="line"/>
      <point x="128.0" y="-273.0" type="line"/>
      <point x="128.0" y="876.0" type="line"/>
      <point x="-20.0" y="876.0" type="line"/>
      <point x="-20.0" y="947.0" type="line"/>
      <point x="256.0" y="982.0" type="line"/>
      <point x="256.0" y="789.0" type="line"/>
      <point x="309.0" y="894.0"/>
      <point x="415.0" y="987.0"/>
    </contour>
    <contour>
      <point x="928.0" y="470.0" type="curve" smooth="yes"/>
      <point x="928.0" y="730.0"/>
      <point x="805" y="891"/>
      <point x="594" y="891" type="curve" smooth="yes"/>
      <point x="513" y="891"/>
      <point x="372.0" y="870.0"/>
      <point x="256.0" y="689.0" type="curve"/>
      <point x="256.0" y="388.0" type="line" smooth="yes"/>
      <point x="256.0" y="283.0"/>
      <point x="347" y="76"/>
      <point x="598" y="76" type="curve" smooth="yes"/>
      <point x="854" y="76"/>
      <point x="928.0" y="298.0"/>
    </contour>
  </outline>
</glyph>
<glyph name="q" format="1">
  <advance width="1228"/>
  <unicode hex="0071"/>
  <outline>
    <contour>
      <point x="688" y="-367" type="line"/>
      <point x="1160" y="-367" type="line"/>
      <point x="1160" y="-272" type="line"/>
      <point x="1000" y="-272" type="line"/>
      <point x="1000" y="878" type="line"/>
      <point x="1137" y="878" type="line"/>
      <point x="1137" y="973" type="line"/>
      <point x="908" y="973" type="line"/>
      <point x="857" y="835" type="line"/>
      <point x="783" y="929"/>
      <point x="649" y="984"/>
      <point x="548" y="988" type="curve" smooth="yes"/>
      <point x="262" y="1000"/>
      <point x="80" y="787"/>
      <point x="80" y="486" type="curve" smooth="yes"/>
      <point x="80" y="180"/>
      <point x="269" y="-18"/>
      <point x="536" y="-17" type="curve" smooth="yes"/>
      <point x="757" y="-16"/>
      <point x="838" y="126"/>
      <point x="856" y="166" type="curve"/>
      <point x="856" y="-272" type="line"/>
      <point x="688" y="-272" type="line"/>
    </contour>
    <contour>
      <point x="554" y="82" type="curve" smooth="yes"/>
      <point x="366" y="82"/>
      <point x="226" y="235"/>
      <point x="226" y="508" type="curve" smooth="yes"/>
      <point x="226" y="704"/>
      <point x="339" y="891"/>
      <point x="547" y="891" type="curve" smooth="yes"/>
      <point x="697" y="891"/>
      <point x="809" y="801"/>
      <point x="856" y="755" type="curve"/>
      <point x="856" y="285" type="line"/>
      <point x="826" y="222"/>
      <point x="746" y="82"/>
    </contour>
  </outline>
</glyph>
<glyph name="w" format="1">
  <advance width="1793"/>
  <unicode hex="0077"/>
  <outline>
    <contour>
      <point x="1323.41" y="812" type="line"/>
      <point x="1323.41" y="1021" type="line"/>
      <point x="1756" y="1021" type="line"/>
      <point x="1756" y="812" type="line"/>
      <point x="1633.94" y="812" type="line"/>
      <point x="1415.74" y="51" type="line"/>
      <point x="1047.07" y="51" type="line"/>
      <point x="895.348" y="594.246" type="line"/>
      <point x="719.118" y="51" type="line"/>
      <point x="376.972" y="51" type="line"/>
      <point x="147.486" y="812" type="line"/>
      <point x="28" y="812" type="line"/>
      <point x="28" y="1021" type="line"/>
      <point x="606.548" y="1021" type="line"/>
      <point x="606.548" y="812" type="line"/>
      <point x="506.364" y="812" type="line"/>
      <point x="648.142" y="203.054" type="line"/>
      <point x="881.494" y="1021" type="line"/>
      <point x="1057.89" y="1021" type="line"/>
      <point x="1298.23" y="193.987" type="line"/>
      <point x="1446.19" y="812" type="line"/>
    </contour>
  </outline>
</glyph>
<glyph name="y" format="1">
  <advance width="1271"/>
  <unicode hex="0079"/>
  <outline>
    <contour>
      <point x="353.74" y="-377" type="line"/>
      <point x="353.74" y="-164" type="line"/>
      <point x="511.604" y="-164" type="line"/>
      <point x="586.784" y="-18.9805" type="line"/>
      <point x="132.949" y="761" type="line"/>
      <point x="28" y="761" type="line"/>
      <point x="28" y="970" type="line"/>
      <point x="626.358" y="970" type="line"/>
      <point x="626.358" y="761" type="line"/>
      <point x="510.162" y="761" type="line"/>
      <point x="732.419" y="292.087" type="line"/>
      <point x="935.932" y="761" type="line"/>
      <point x="812.194" y="761" type="line"/>
      <point x="812.194" y="970" type="line"/>
      <point x="1244" y="970" type="line"/>
      <point x="1244" y="761" type="line"/>
      <point x="1155.27" y="761" type="line"/>
      <point x="707.318" y="-164" type="line"/>
      <point x="870.048" y="-164" type="line"/>
      <point x="870.048" y="-377" type="line"/>
    </contour>
  </outline>
</glyph>
<glyph name="bar" format="1">
  <advance width="365"/>
  <unicode hex="007C"/>
  <outline>
    <contour>
      <point x="329" y="1572" type="line"/>
      <point x="36" y="1572" type="line"/>
      <point x="36" y="51" type="line"/>
      <point x="329" y="51" type="line"/>
    </contour>
  </outline>
</glyph>
<glyph name="currency" format="1">
  <advance width="1030"/>
  <unicode hex="00A4"/>
  <outline>
    <contour>
      <point x="40" y="1097" type="curve" smooth="yes"/>
      <point x="40" y="1098" type="line" smooth="yes"/>
      <point x="40" y="1229.35"/>
      <point x="75.0811" y="1334.26"/>
      <point x="143.633" y="1418.9" type="curve" smooth="yes"/>
      <point x="172.32" y="1454.33" type="line"/>
      <point x="108.858" y="1518.73" type="line"/>
      <point x="139.747" y="1549.62" type="line"/>
      <point x="204.66" y="1483.79" type="line"/>
      <point x="239.858" y="1507.95" type="line"/>
      <point x="324.408" y="1571.95"/>
      <point x="411.152" y="1604"/>
      <point x="512" y="1604" type="curve" smooth="yes"/>
      <point x="615.398" y="1604"/>
      <point x="703.46" y="1570.45"/>
      <point x="789.356" y="1503.5" type="curve"/>
      <point x="824.513" y="1478.39" type="line"/>
      <point x="896" y="1549.88" type="line"/>
      <point x="926.875" y="1519" type="line"/>
      <point x="857.273" y="1449.4" type="line"/>
      <point x="884.576" y="1413.9" type="line" smooth="yes"/>
      <point x="950.452" y="1328.27"/>
      <point x="984" y="1224.48"/>
      <point x="984" y="1097" type="curve" smooth="yes"/>
      <point x="984" y="963.67"/>
      <point x="948.28" y="857.952"/>
      <point x="878.64" y="773.431" type="curve" smooth="yes"/>
      <point x="849.188" y="737.687" type="line"/>
      <point x="926.875" y="660" type="line"/>
      <point x="896" y="629.125" type="line"/>
      <point x="816.177" y="708.948" type="line"/>
      <point x="781.261" y="685.132" type="line"/>
      <point x="698.386" y="622.473"/>
      <point x="612.421" y="591"/>
      <point x="512" y="591" type="curve" smooth="yes"/>
      <point x="414.115" y="591"/>
      <point x="329.778" y="620.972"/>
      <point x="249.025" y="680.609" type="curve"/>
      <point x="214.314" y="703.439" type="line"/>
      <point x="140" y="629.125" type="line"/>
      <point x="109.125" y="660" type="line"/>
      <point x="180.04" y="730.915" type="line"/>
      <point x="150.136" y="766.702" type="line" smooth="yes"/>
      <point x="77.1416" y="854.055"/>
      <point x="40" y="961.986"/>
    </contour>
    <contour>
      <point x="130" y="1046.56" type="curve" smooth="yes"/>
      <point x="130" y="787.808"/>
      <point x="300.114" y="599.556"/>
      <point x="511.184" y="599.556" type="curve" smooth="yes"/>
      <point x="722.359" y="599.556"/>
      <point x="892" y="789.872"/>
      <point x="892" y="1048.56" type="curve" smooth="yes"/>
      <point x="892" y="1117.18"/>
      <point x="879.862" y="1181.35"/>
      <point x="854.876" y="1239.65" type="curve" smooth="yes"/>
      <point x="830.725" y="1296" type="line"/>
      <point x="824.978" y="1292.17" type="line"/>
      <point x="754.574" y="1411.13"/>
      <point x="646.572" y="1493.56"/>
      <point x="510.368" y="1493.56" type="curve" smooth="yes"/>
      <point x="299.001" y="1493.56"/>
      <point x="130" y="1304.51"/>
    </contour>
  </outline>
</glyph>
<glyph name="paragraph" format="1">
  <advance width="1257"/>
  <unicode hex="00B6"/>
  <outline>
    <contour>
      <point x="526.326" y="789.995" type="move" smooth="yes"/>
      <point x="263.4" y="800.898"/>
      <point x="84.3359" y="892.687"/>
      <point x="88.9941" y="1165.21" type="curve" smooth="yes"/>
      <point x="94.2514" y="1549.04"/>
      <point x="391.173" y="1567.76"/>
      <point x="774.394" y="1572" type="curve" smooth="yes"/>
      <point x="923.164" y="1573.65"/>
      <point x="1083.55" y="1572.29"/>
      <point x="1254" y="1572.04" type="curve"/>
      <point x="1254" y="1319" type="line"/>
      <point x="1103" y="1319" type="line"/>
      <point x="1103" y="312" type="line"/>
      <point x="1259" y="312" type="line"/>
      <point x="1259" y="51" type="line"/>
      <point x="960.003" y="51" type="line"/>
      <point x="960.003" y="1321" type="line"/>
      <point x="762.665" y="1321" type="line"/>
      <point x="762.665" y="51" type="line"/>
      <point x="488.827" y="51" type="line"/>
      <point x="488.827" y="312" type="line"/>
      <point x="615.749" y="312" type="line"/>
      <point x="615.749" y="687" type="line"/>
    </contour>
  </outline>
</glyph>
<glyph name="onesuperior" format="1">
  <advance width="433"/>
  <unicode hex="00B9"/>
  <outline>
    <contour>
      <point x="85.7324" y="337" type="line"/>
      <point x="387" y="337" type="line"/>
      <point x="387" y="425" type="line"/>
      <point x="331.331" y="425" type="line"/>
      <point x="327.425" y="1025.58" type="line"/>
      <point x="42" y="953.305" type="line"/>
      <point x="42" y="893.534" type="line"/>
      <point x="138" y="894.534" type="line"/>
      <point x="138" y="425" type="line"/>
      <point x="85.2695" y="425" type="line"/>
    </contour>
  </outline>
</glyph>
<glyph name="onequarter" format="1">
  <advance width="1470"/>
  <unicode hex="00BC"/>
  <outline>
    <contour>
      <point x="1300" y="119" type="line"/>
      <point x="1300" y="298" type="line"/>
      <point x="1434" y="298" type="line"/>
      <point x="1434" y="346.615" type="line"/>
      <point x="1301" y="345.615" type="line"/>
      <point x="1301" y="737.197" type="line"/>
      <point x="1124.76" y="737.908" type="line"/>
      <point x="858.107" y="386.358" type="line"/>
      <point x="858.107" y="298" type="line"/>
      <point x="1139.48" y="298" type="line"/>
      <point x="1139.48" y="119" type="line"/>
      <point x="1072.96" y="119" type="line"/>
      <point x="1072.96" y="52" type="line"/>
      <point x="1372" y="52" type="line"/>
      <point x="1372" y="119" type="line"/>
    </contour>
    <contour>
      <point x="78.7324" y="869" type="line"/>
      <point x="369.973" y="869" type="line"/>
      <point x="369.973" y="957" type="line"/>
      <point x="319.929" y="957" type="line"/>
      <point x="316.417" y="1557.58" type="line"/>
      <point x="35" y="1485.3" type="line"/>
      <point x="35" y="1425.53" type="line"/>
      <point x="131" y="1426.53" type="line"/>
      <point x="131" y="957" type="line"/>
      <point x="78.2695" y="957" type="line"/>
    </contour>
    <contour>
      <point x="328.362" y="51" type="line"/>
      <point x="550.115" y="51" type="line"/>
      <point x="973.031" y="1572" type="line"/>
      <point x="742.009" y="1572" type="line"/>
    </contour>
    <contour>
      <point x="1139.48" y="346.538" type="line"/>
      <point x="898.392" y="348.954" type="line"/>
      <point x="1139.48" y="679.96" type="line"/>
    </contour>
  </outline>
</glyph>
<glyph name="Eth" format="1">
  <advance width="1551"/>
  <unicode hex="00D0"/>
  <outline>
    <contour>
      <point x="57" y="1571" type="line"/>
      <point x="784.663" y="1571" type="line" smooth="yes"/>
      <point x="1253.56" y="1571"/>
      <point x="1506" y="1327.11"/>
      <point x="1506" y="816" type="curve" smooth="yes"/>
      <point x="1506" y="584.646"/>
      <point x="1419.53" y="411.63"/>
      <point x="1305.31" y="282.356" type="curve" smooth="yes"/>
      <point x="1188.68" y="150.358"/>
      <point x="1002.44" y="51"/>
      <point x="762.974" y="51" type="curve" smooth="yes"/>
      <point x="61" y="51" type="line"/>
      <point x="61" y="300" type="line"/>
      <point x="224" y="300" type="line"/>
      <point x="224" y="704" type="line"/>
      <point x="94" y="704" type="line"/>
      <point x="94" y="901" type="line"/>
      <point x="223.681" y="901" type="line"/>
      <point x="226.321" y="1321" type="line"/>
      <point x="57" y="1321" type="line"/>
    </contour>
    <contour>
      <point x="711.461" y="296" type="line" smooth="yes"/>
      <point x="972.674" y="296"/>
      <point x="1036.8" y="576.386"/>
      <point x="1036.8" y="815" type="curve" smooth="yes"/>
      <point x="1036.8" y="1054.57"/>
      <point x="984.906" y="1320"/>
      <point x="724.113" y="1320" type="curve" smooth="yes"/>
      <point x="635.548" y="1320" type="line"/>
      <point x="635.548" y="900" type="line"/>
      <point x="713.269" y="900" type="line"/>
      <point x="713.269" y="703" type="line"/>
      <point x="635.992" y="703" type="line"/>
      <point x="639.436" y="319.394" type="line"/>
      <point x="625.342" y="296" type="line"/>
    </contour>
  </outline>
</glyph>
<glyph name="Thorn" format="1">
  <advance width="1409"/>
  <unicode hex="00DE"/>
  <outline>
    <contour>
      <point x="1374" y="1085.69" type="curve" smooth="yes"/>
      <point x="1374" y="732.115"/>
      <point x="1139.14" y="610"/>
      <point x="805.709" y="610" type="curve" smooth="yes"/>
      <point x="761.786" y="610"/>
      <point x="719.835" y="613.864"/>
      <point x="677.785" y="620.021" type="curve" smooth="yes"/>
      <point x="626.743" y="627.496" type="line"/>
      <point x="626.743" y="312" type="line"/>
      <point x="756.738" y="312" type="line"/>
      <point x="756.738" y="51" type="line"/>
      <point x="54" y="51" type="line"/>
      <point x="54" y="311.674" type="line"/>
      <point x="211" y="310.674" type="line"/>
      <point x="211" y="1578.07" type="line"/>
      <point x="60" y="1578.07" type="line"/>
      <point x="60" y="1842" type="line"/>
      <point x="627.482" y="1842" type="line"/>
      <point x="626.592" y="1529.04" type="line"/>
      <point x="734.479" y="1529.04" type="line" smooth="yes"/>
      <point x="1094.05" y="1529.04"/>
      <point x="1374" y="1455.68"/>
    </contour>
    <contour>
      <point x="727.356" y="843" type="line" smooth="yes"/>
      <point x="847.97" y="843"/>
      <point x="974.881" y="888.982"/>
      <point x="974.881" y="1055" type="curve" smooth="yes"/>
      <point x="974.881" y="1193.84"/>
      <point x="867.541" y="1258"/>
      <point x="765.642" y="1258" type="curve" smooth="yes"/>
      <point x="627.633" y="1258" type="line"/>
      <point x="627.633" y="843" type="line"/>
    </contour>
  </outline>
</glyph>
<glyph name="hbar" format="1">
  <advance width="1232"/>
  <unicode hex="0127"/>
  <outline>
    <contour>
      <point x="629.958" y="1001.94" type="line" smooth="yes"/>
      <point x="672.156" y="1050.83"/>
      <point x="721.415" y="1089"/>
      <point x="817.173" y="1089" type="curve" smooth="yes"/>
      <point x="1003.02" y="1089"/>
      <point x="1104" y="974.462"/>
      <point x="1104" y="753" type="curve" smooth="yes"/>
      <point x="1104" y="305" type="line"/>
      <point x="1190" y="305" type="line"/>
      <point x="1190" y="102" type="line"/>
      <point x="747.271" y="102" type="line"/>
      <point x="747.271" y="670.408" type="line"/>
      <point x="746.005" y="762.072"/>
      <point x="712.668" y="846"/>
      <point x="630.767" y="846" type="curve" smooth="yes"/>
      <point x="546.648" y="846"/>
      <point x="499.592" y="773.504"/>
      <point x="499.592" y="677" type="curve" smooth="yes"/>
      <point x="499.592" y="305" type="line"/>
      <point x="568.632" y="305" type="line"/>
      <point x="568.632" y="102" type="line"/>
      <point x="60.168" y="102" type="line"/>
      <point x="60.833" y="305" type="line"/>
      <point x="140" y="305" type="line"/>
      <point x="140" y="1235" type="line"/>
      <point x="56" y="1235" type="line"/>
      <point x="56" y="1272" type="line"/>
      <point x="140" y="1272" type="line"/>
      <point x="140" y="1434" type="line"/>
      <point x="56" y="1434" type="line"/>
      <point x="56" y="1640" type="line"/>
      <point x="496.14" y="1640" type="line"/>
      <point x="496.14" y="1272" type="line"/>
      <point x="647.164" y="1272" type="line"/>
      <point x="647.164" y="1235" type="line"/>
      <point x="496.14" y="1235" type="line"/>
      <point x="496.14" y="834.096" type="line"/>
      <point x="572.867" y="932.883" type="line" smooth="yes"/>
      <point x="588.081" y="952.47"/>
      <point x="598.557" y="965.552"/>
      <point x="601.398" y="968.844" type="curve" smooth="yes"/>
    </contour>
  </outline>
</glyph>
<glyph name="uniFB00" format="1">
  <advance width="1537"/>
  <unicode hex="FB00"/>
  <outline>
    <contour>
      <point x="642.308" y="1366" type="curve" smooth="yes"/>
      <point x="506.206" y="1366"/>
      <point x="490.334" y="1234.98"/>
      <point x="496.094" y="1120.17" type="curve" smooth="yes"/>
      <point x="498.511" y="1072" type="line"/>
      <point x="944.811" y="1072" type="line"/>
      <point x="944.811" y="1123" type="line" smooth="yes"/>
      <point x="944.811" y="1163.63"/>
      <point x="943.799" y="1200.37"/>
      <point x="943" y="1258.77" type="curve" smooth="yes"/>
      <point x="942.443" y="1299.5" type="line"/>
      <point x="954.745" y="1513.21"/>
      <point x="1044.73" y="1606"/>
      <point x="1238.28" y="1606" type="curve" smooth="yes"/>
      <point x="1321.9" y="1606"/>
      <point x="1425.66" y="1588.56"/>
      <point x="1496" y="1571.64" type="curve"/>
      <point x="1496" y="1361.04" type="line"/>
      <point x="1479.89" y="1363.01"/>
      <point x="1465.4" y="1364"/>
      <point x="1451" y="1364" type="curve" smooth="yes"/>
      <point x="1301.1" y="1364"/>
      <point x="1282.67" y="1233.6"/>
      <point x="1289.08" y="1118.17" type="curve" smooth="yes"/>
      <point x="1291.75" y="1070" type="line"/>
      <point x="1468" y="1070" type="line"/>
      <point x="1468" y="861" type="line"/>
      <point x="1296" y="861" type="line"/>
      <point x="1296" y="303" type="line"/>
      <point x="1406" y="303" type="line"/>
      <point x="1406" y="100" type="line"/>
      <point x="868.96" y="100" type="line"/>
      <point x="868.96" y="303" type="line"/>
      <point x="944.811" y="303" type="line"/>
      <point x="944.811" y="861" type="line"/>
      <point x="501.441" y="861" type="line"/>
      <point x="501.441" y="303" type="line"/>
      <point x="600.771" y="303" type="line"/>
      <point x="600.771" y="100" type="line"/>
      <point x="55" y="100" type="line"/>
      <point x="55" y="303" type="line"/>
      <point x="139" y="303" type="line"/>
      <point x="139" y="861" type="line"/>
      <point x="55" y="861" type="line"/>
      <point x="55" y="1070" type="line"/>
      <point x="138" y="1070" type="line"/>
      <point x="138" y="1121" type="line" smooth="yes"/>
      <point x="138" y="1161.38"/>
      <point x="136" y="1198.86"/>
      <point x="136" y="1256.39" type="curve" smooth="yes"/>
      <point x="136" y="1503.76"/>
      <point x="238.259" y="1608"/>
      <point x="449.068" y="1608" type="curve" smooth="yes"/>
      <point x="525.728" y="1608"/>
      <point x="619.427" y="1590.56"/>
      <point x="682.943" y="1573.64" type="curve"/>
      <point x="682.943" y="1363.04" type="line"/>
      <point x="668.398" y="1365.01"/>
      <point x="655.314" y="1366"/>
    </contour>
  </outline>
</glyph>
<glyph name="uniFB02" format="1">
  <advance width="1429"/>
  <unicode hex="FB02"/>
  <outline>
    <contour>
      <point x="941.377" y="1416" type="line"/>
      <point x="746.078" y="1416" type="line" smooth="yes"/>
      <point x="638.406" y="1416"/>
      <point x="495.489" y="1397.66"/>
      <point x="495.489" y="1226" type="curve" smooth="yes"/>
      <point x="495.489" y="1071" type="line"/>
      <point x="653.333" y="1071" type="line"/>
      <point x="653.333" y="862" type="line"/>
      <point x="499.948" y="862" type="line"/>
      <point x="499.948" y="298" type="line"/>
      <point x="598.043" y="298" type="line"/>
      <point x="598.043" y="101" type="line"/>
      <point x="56" y="101" type="line"/>
      <point x="56" y="298" type="line"/>
      <point x="140" y="298" type="line"/>
      <point x="140" y="862" type="line"/>
      <point x="56" y="862" type="line"/>
      <point x="56" y="1071" type="line"/>
      <point x="139" y="1071" type="line"/>
      <point x="139" y="1122" type="line" smooth="yes"/>
      <point x="139" y="1162.38"/>
      <point x="137" y="1199.86"/>
      <point x="137" y="1257.39" type="curve" smooth="yes"/>
      <point x="137" y="1615.15"/>
      <point x="427.834" y="1630"/>
      <point x="795.571" y="1630" type="curve" smooth="yes"/>
      <point x="1310" y="1630" type="line"/>
      <point x="1310" y="303" type="line"/>
      <point x="1388" y="303" type="line"/>
      <point x="1388" y="99" type="line"/>
      <point x="875.385" y="99" type="line"/>
      <point x="875.385" y="303" type="line"/>
      <point x="941.377" y="303" type="line"/>
    </contour>
  </outline>
</glyph>
<glyph name="invertedbreve" format="1">
  <advance width="720"/>
  <outline>
    <contour>
      <point x="209.216" y="1203" type="curve"/>
      <point x="56" y="1203" type="line"/>
      <point x="80.9482" y="1355.71"/>
      <point x="218.973" y="1445"/>
      <point x="354.986" y="1445" type="curve" smooth="yes"/>
      <point x="492.831" y="1445"/>
      <point x="629.675" y="1354.36"/>
      <point x="654.06" y="1202" type="curve"/>
      <point x="502.775" y="1202" type="line"/>
      <point x="482.294" y="1297.71"/>
      <point x="406.424" y="1363"/>
      <point x="355.497" y="1363" type="curve" smooth="yes"/>
      <point x="304.51" y="1363"/>
      <point x="229.609" y="1296.58"/>
    </contour>
  </outline>
</glyph>
<glyph name="ymacron" format="1">
  <advance width="1295"/>
  <outline>
    <contour>
      <point x="442.859" y="-326" type="line"/>
      <point x="595.422" y="34.4531" type="line"/>
      <point x="142.949" y="812" type="line"/>
      <point x="38" y="812" type="line"/>
      <point x="38" y="1021" type="line"/>
      <point x="636.358" y="1021" type="line"/>
      <point x="636.358" y="812" type="line"/>
      <point x="517.997" y="812" type="line"/>
      <point x="752.324" y="345.712" type="line"/>
      <point x="954.697" y="812" type="line"/>
      <point x="822.194" y="812" type="line"/>
      <point x="822.194" y="1021" type="line"/>
      <point x="1254" y="1021" type="line"/>
      <point x="1254" y="812" type="line"/>
      <point x="1144.93" y="812" type="line"/>
      <point x="700.606" y="-133" type="line"/>
      <point x="932.643" y="-133" type="line"/>
      <point x="932.643" y="-326" type="line"/>
    </contour>
    <contour>
      <point x="880.925" y="1234" type="line"/>
      <point x="880.925" y="1467" type="line"/>
      <point x="314.651" y="1467" type="line"/>
      <point x="314.651" y="1234" type="line"/>
    </contour>
  </outline>
</glyph>
